<svg width="89" height="98" viewBox="0 0 89 98" fill="none" xmlns="http://www.w3.org/2000/svg">
<g clip-path="url(#clip0_8_314)">
<path d="M79.0912 44.4921C79.835 36.9032 77.9147 29.2868 73.6577 22.9416C72.2952 20.9211 70.4465 19.273 68.281 18.1483C66.1155 17.0236 63.7025 16.4582 61.2634 16.5042C60.8444 16.5116 60.4306 16.4099 60.0627 16.2091C59.6948 16.0084 59.3857 15.7155 59.1658 15.3595C57.8862 13.2863 56.106 11.5651 53.9882 10.3537C51.8704 9.14226 49.4827 8.47919 47.0437 8.42524C41.032 8.29091 35.1025 9.80723 29.9035 12.8083C24.7046 15.8095 20.4364 20.1798 17.566 25.4414L17.2615 25.9975C13.169 33.4387 12.1567 42.1852 14.4405 50.3727C14.5346 50.7105 14.553 51.0646 14.4946 51.4099C14.4362 51.7552 14.3023 52.0834 14.1024 52.3711C13.9214 52.6319 13.7443 52.8924 13.5613 53.1674C11.0754 56.9016 9.93811 61.3699 10.3361 65.8391C10.7341 70.3084 12.6436 74.5134 15.7516 77.7634C16.0661 78.0926 16.3955 78.4145 16.7321 78.72C18.7345 80.5374 20.9477 82.109 23.3247 83.4006L23.3471 83.4126C24.9503 84.2884 26.6207 85.0353 28.3428 85.6456C29.1731 85.9395 30.0193 86.2011 30.857 86.4244C35.4346 87.6395 40.2939 87.1839 44.5581 85.142C48.8224 83.0994 52.2115 79.6038 54.1143 75.2853C54.2589 74.9577 54.3937 74.6428 54.5272 74.3222C54.6601 73.9995 54.8624 73.71 55.12 73.474C55.3775 73.2382 55.6839 73.0615 56.0177 72.9567C64.1067 70.4358 70.8894 64.8762 74.9319 57.4528L75.2364 56.8967C77.3461 53.0642 78.6572 48.8451 79.0912 44.4921ZM69.7473 53.9031L69.4428 54.4592C67.7786 57.5171 65.5224 60.2147 62.8045 62.396C60.0867 64.5773 56.961 66.1991 53.6082 67.1677C52.4736 67.4985 51.3182 67.7542 50.1496 67.9334C49.6693 69.5789 49.0825 71.1912 48.3928 72.7606C47.3597 75.108 45.6802 77.1143 43.5487 78.5471C41.4172 79.9798 38.9209 80.7808 36.3491 80.8564L35.8503 81.4894C35.5015 81.9287 35.1514 82.3825 34.8125 82.8211C34.6433 83.0402 34.4741 83.2592 34.3051 83.4775L33.693 84.2744C33.6692 84.3058 33.647 84.3347 33.6215 84.3671L33.619 84.3752L33.5654 84.4384C33.5566 84.4491 33.5471 84.4589 33.5371 84.4677L33.4653 84.5343C33.2228 84.7399 32.9094 84.8421 32.592 84.8197C32.4874 84.8131 32.3837 84.7949 32.2837 84.7637C32.0784 84.7004 31.8888 84.5943 31.7284 84.451C30.4338 83.3132 29.0312 82.106 27.4395 80.7654C26.5332 79.9986 25.6113 79.2315 24.7191 78.4891C24.2061 78.0622 23.6945 77.6357 23.1844 77.2089L22.6098 76.7268C22.1106 76.3086 21.5942 75.8754 21.0915 75.4465L20.0587 74.5683L18.6777 73.3714C18.4609 73.1842 18.2377 72.9912 18.0187 72.7989L17.5153 72.3552C17.232 72.1034 17.0372 71.7678 16.9595 71.3978C16.8819 71.0346 16.9346 70.6561 17.1086 70.3283C17.1095 70.3243 17.1106 70.3204 17.1121 70.3167L17.1225 70.2975C17.1393 70.2692 17.1561 70.2409 17.1734 70.2135C17.1773 70.2073 17.1817 70.2014 17.1863 70.1958L17.2472 70.1133C17.2513 70.1074 17.2557 70.1019 17.2605 70.0966L17.559 69.7415L17.6766 69.6004C16.7525 67.5147 16.3689 65.2318 16.5612 62.9619C16.7534 60.692 17.5154 58.5079 18.7768 56.6106C19.7143 55.2017 20.7416 53.8544 21.8525 52.5772C21.3562 51.4679 20.9355 50.3268 20.5933 49.1613C19.598 45.8212 19.2764 42.3189 19.6472 38.8569C20.0179 35.3949 21.0737 32.0419 22.7533 28.992L23.0571 28.4356C25.391 24.1838 28.8489 20.6522 33.0561 18.2236C37.2633 15.7949 42.0594 14.562 46.9245 14.6582C49.0862 14.707 51.1458 15.5925 52.6673 17.1272C54.1888 18.662 55.0528 20.7255 55.0764 22.881L55.101 25.175C55.1007 25.1849 55.1032 25.1946 55.1083 25.203C55.1134 25.2114 55.1209 25.2182 55.1299 25.2224C55.1383 25.2275 55.1481 25.2299 55.158 25.2297C55.1678 25.2294 55.1774 25.2263 55.1856 25.2208L57.1338 24.0008C58.9635 22.8556 61.1698 22.4662 63.2857 22.9152C65.4015 23.3642 67.2606 24.6163 68.4693 26.4063C71.192 30.4368 72.7514 35.134 72.9769 39.9839C73.2024 44.8338 72.0854 49.6492 69.748 53.9033L69.7473 53.9031Z" fill="#F9F4DA"/>
<path d="M79.8019 44.5637C80.562 36.8102 78.5997 29.0285 74.2498 22.5459C72.8208 20.4262 70.8815 18.6971 68.6098 17.5172C66.3382 16.3372 63.8069 15.7442 61.2481 15.7926C60.9543 15.7975 60.6642 15.726 60.4062 15.5852C60.1482 15.4444 59.9313 15.2392 59.7768 14.9897C58.4346 12.8138 56.5668 11.0073 54.3446 9.73573C52.1225 8.46416 49.617 7.76813 47.0576 7.71138C40.9151 7.57471 34.8567 9.12448 29.5449 12.1912C24.2331 15.2579 19.8724 19.7235 16.9397 25.0996L16.6352 25.6557C12.4525 33.2585 11.4173 42.1955 13.7503 50.5616C13.8163 50.7988 13.8292 51.0476 13.7881 51.2902C13.7469 51.5327 13.6526 51.7632 13.512 51.9652C13.3283 52.2304 13.149 52.4954 12.9668 52.7751C10.392 56.6432 9.21402 61.2716 9.62606 65.901C10.0381 70.5305 12.0156 74.8862 15.2345 78.2532C15.5603 78.5941 15.9018 78.9279 16.25 79.2443C18.2949 81.1 20.5552 82.7045 22.9824 84.024L23.0056 84.0363C24.6418 84.9303 26.3468 85.6922 28.1043 86.3155C28.5757 86.4822 29.0571 86.6408 29.5364 86.7869C29.9153 86.9023 30.2949 87.0106 30.6729 87.1116C35.4148 88.3686 40.4475 87.8967 44.8643 85.7809C49.2811 83.6652 52.7913 80.0448 54.7625 75.5721C54.9095 75.2393 55.0464 74.9197 55.1818 74.593C55.2757 74.366 55.4184 74.1625 55.5999 73.9966C55.7814 73.8307 55.9973 73.7067 56.2323 73.6331C64.497 71.0578 71.4274 65.3786 75.5595 57.795L75.8633 57.2387C78.0189 53.3227 79.3586 49.0117 79.8019 44.5637ZM74.9319 57.4528C70.8893 64.8762 64.1067 70.4358 56.0176 72.9567C55.6831 73.0609 55.3758 73.2373 55.1174 73.4733C54.859 73.7093 54.656 73.9991 54.5227 74.3223C54.3892 74.6429 54.2544 74.9578 54.1098 75.2855C52.2072 79.6033 48.8189 83.0984 44.5552 85.1411C40.2916 87.1839 35.4333 87.6391 30.8559 86.4255C30.0182 86.2022 29.172 85.9407 28.3417 85.6467C26.6196 85.0365 24.9491 84.2896 23.346 83.4137L23.3235 83.4017C20.9474 82.1097 18.735 80.5376 16.7335 78.7204C16.3968 78.4149 16.0674 78.093 15.7529 77.7638C12.6482 74.5118 10.7409 70.3073 10.3429 65.839C9.94494 61.3707 11.0798 56.9032 13.5619 53.1676C13.7443 52.8923 13.9214 52.6319 14.103 52.3713C14.3029 52.0836 14.4368 51.7554 14.4953 51.4101C14.5537 51.0648 14.5352 50.7107 14.4412 50.3729C12.1571 42.1854 13.1691 33.4389 17.2615 25.9975L17.566 25.4414C20.4467 20.1885 24.717 15.8254 29.9136 12.8257C35.1102 9.82595 41.0345 8.30409 47.0437 8.42522C49.4829 8.47821 51.871 9.14086 53.9889 10.3524C56.1068 11.5639 57.8869 13.2856 59.1658 15.3595C59.3857 15.7155 59.6948 16.0084 60.0627 16.2091C60.4306 16.4099 60.8444 16.5116 61.2633 16.5041C63.7025 16.4582 66.1155 17.0236 68.281 18.1483C70.4465 19.273 72.2952 20.9211 73.6577 22.9416C77.0181 27.9193 78.9427 33.7196 79.2212 39.7082C79.4996 45.6968 78.1211 51.6431 75.2364 56.8967L74.9319 57.4528Z" fill="#231F20"/>
<path d="M46.7663 31.7522C46.0946 30.8188 45.3622 29.9304 44.5738 29.0926C44.2956 28.8034 43.6461 28.3639 42.7368 27.9277L40.7127 31.6319C40.4167 32.1636 40.2293 32.7485 40.1612 33.3531C40.0931 33.9577 40.1458 34.57 40.3161 35.1547C40.4863 35.7394 40.771 36.285 41.1535 36.76C41.536 37.235 42.0088 37.6301 42.5448 37.9224C43.0807 38.2148 43.6692 38.3986 44.2762 38.4634C44.8833 38.5281 45.497 38.4725 46.0819 38.2997C46.6668 38.1269 47.2114 37.8404 47.6843 37.4566C48.1573 37.0728 48.5491 36.5994 48.8374 36.0636L49.7811 34.3352L49.6052 34.2392C48.4875 33.6279 47.5182 32.7787 46.7663 31.7522Z" fill="#F9F4DA"/>
<path d="M35.8242 26.4055C34.4327 26.4503 33.1588 26.7224 32.0024 27.2219C31.796 28.3017 31.9834 29.4203 32.5309 30.376C33.0784 31.3319 33.9499 32.0619 34.9884 32.4347C36.0269 32.8075 37.164 32.7984 38.1949 32.4092C39.2257 32.02 40.0824 31.2762 40.6106 30.3119L42.0762 27.6298C40.4419 26.9385 38.2037 26.3286 35.8242 26.4055Z" fill="#F9F4DA"/>
<path d="M57.5688 36.1807C56.4367 35.9707 55.2921 35.8355 54.1424 35.7758C52.8708 35.6984 51.6315 35.3428 50.5123 34.7342L50.4126 34.6793L49.4666 36.4077C48.8898 37.4798 48.7621 38.7366 49.1113 39.9041C49.4605 41.0716 50.2583 42.055 51.3307 42.6399C52.403 43.2248 53.663 43.3638 54.8358 43.0265C56.0086 42.6892 56.9991 41.903 57.5913 40.8393L58.0992 39.9073C58.1039 39.8917 58.1133 39.8782 58.1215 39.8636L59.6128 37.1388C58.7236 36.5853 57.9743 36.2604 57.5688 36.1807Z" fill="#F9F4DA"/>
<path d="M64.5608 42.0793C63.3582 40.0693 61.6682 38.5345 60.2145 37.5318L58.7501 40.2075C58.2246 41.1665 58.0584 42.281 58.2811 43.3524C58.5038 44.4237 59.101 45.3821 59.9659 46.0565C60.8309 46.7309 61.9075 47.0775 63.0035 47.0343C64.0996 46.9911 65.1438 46.5611 65.9499 45.8209C65.7545 44.5507 65.2915 43.3035 64.5608 42.0793Z" fill="#F9F4DA"/>
<path d="M72.1613 43.7926C72.7452 37.8097 71.231 31.8056 67.8763 26.8024C66.771 25.1661 65.0712 24.0216 63.1368 23.6112C61.2025 23.2009 59.1853 23.5569 57.5126 24.6038L55.5672 25.8218C55.4513 25.8944 55.3181 25.9348 55.1811 25.9389C55.0442 25.9429 54.9086 25.9105 54.7884 25.8448C54.6681 25.7791 54.5675 25.6826 54.4971 25.5653C54.4267 25.4481 54.3889 25.3142 54.3877 25.1777L54.3629 22.8843C54.3413 20.9137 53.5516 19.0272 52.1608 17.624C50.7699 16.2208 48.8871 15.4111 46.9109 15.3662C40.8812 15.2515 35.0022 17.223 30.2742 20.9455C27.5695 23.0859 25.3271 25.7495 23.6813 28.7767L23.3758 29.3363C21.7412 32.3044 20.7138 35.5674 20.353 38.9365C19.9922 42.3056 20.3052 45.714 21.274 48.9644C21.5772 49.9909 21.943 50.998 22.3694 51.9802C23.5648 50.5865 24.6128 49.3314 25.7582 47.191C25.8033 47.1067 25.8516 47.024 25.9018 46.9427C24.8743 44.7519 24.4164 42.2686 24.5446 39.5417C24.6697 36.8443 25.336 34.4962 25.8781 33.0038C26.3392 31.7062 27.0274 30.5008 27.9106 29.4434C29.9115 27.0641 32.5656 25.8072 35.7994 25.7007C39.991 25.5657 44.0136 27.491 45.0884 28.6057C45.9 29.4661 46.653 30.3795 47.3425 31.3398C48.0328 32.2808 48.9219 33.0593 49.9468 33.6201L50.8541 34.1144C51.8803 34.6728 53.0168 34.999 54.1829 35.07C55.3645 35.1307 56.541 35.2696 57.7044 35.4861C59.226 35.7862 63.0219 38.1248 65.172 41.7192C66.8309 44.4919 67.2028 47.4017 66.2786 50.3685C65.864 51.6817 65.2194 52.9109 64.3746 53.9993C63.4071 55.2595 61.7915 57.0894 59.5838 58.6518C57.376 60.2142 55.0888 61.1608 52.7261 61.4956C52.6756 61.6028 52.6225 61.7086 52.5641 61.8119C51.3913 63.9076 50.8984 65.4514 50.3761 67.1826C51.3988 67.0115 52.4103 66.7802 53.4052 66.4896C56.668 65.5468 59.7097 63.9682 62.3545 61.8451C64.9992 59.722 67.1944 57.0964 68.8134 54.1202L69.1173 53.5639C70.7818 50.5456 71.8172 47.2221 72.1613 43.7926Z" fill="#ED203D"/>
<path d="M71.908 33.7339C71.1436 31.1317 69.9844 28.6607 68.4707 26.4067C67.262 24.6163 65.4027 23.3639 63.2865 22.9148C61.1703 22.4656 58.9636 22.8552 57.1338 24.0008L55.1877 25.2185C55.1796 25.224 55.17 25.2271 55.1601 25.2274C55.1503 25.2276 55.1405 25.2252 55.132 25.2201C55.1231 25.2159 55.1156 25.2091 55.1105 25.2007C55.1054 25.1922 55.1029 25.1826 55.1032 25.1727L55.0786 22.8787C55.0543 20.7232 54.1898 18.6599 52.6679 17.1256C51.146 15.5914 49.0862 14.7064 46.9244 14.6582C42.0564 14.5481 37.2546 15.7752 33.0445 18.205C28.8344 20.6349 25.3782 24.1739 23.0544 28.4348L22.7505 28.9911C21.0713 32.0414 20.0159 35.3946 19.6457 38.8568C19.2754 42.3189 19.5974 45.8213 20.5932 49.1613C20.9375 50.3268 21.3602 51.4679 21.8586 52.5768C20.7477 53.854 19.7203 55.2013 18.7829 56.6102C17.5211 58.5072 16.7588 60.691 16.5661 62.9608C16.3734 65.2306 16.7564 67.5134 17.6799 69.5992L17.5623 69.7403L17.2639 70.0953C17.2591 70.1006 17.2547 70.1062 17.2506 70.1121L17.1896 70.1946C17.185 70.2002 17.1807 70.2061 17.1768 70.2123C17.1595 70.2397 17.1426 70.268 17.1258 70.2963L17.1155 70.3155C17.114 70.3192 17.1128 70.3231 17.1119 70.3271C16.938 70.6549 16.8852 71.0334 16.9628 71.3966C17.0405 71.7666 17.2354 72.1022 17.5186 72.3539L18.0221 72.7977C18.2406 72.9914 18.4638 73.1843 18.681 73.3702L20.0621 74.5671L21.0949 75.4453C21.5971 75.8756 22.1135 76.3087 22.6132 76.7256L23.1877 77.2077C23.6976 77.6351 24.2092 78.0616 24.7225 78.4879C25.6153 79.2305 26.5365 79.9973 27.4429 80.7641C29.0342 82.1061 30.4365 83.3117 31.7318 84.4498C31.8922 84.5931 32.0817 84.6992 32.2871 84.7625C32.3871 84.7937 32.4908 84.8119 32.5953 84.8185C32.9128 84.8409 33.2261 84.7387 33.4686 84.5331L33.5404 84.4665C33.5505 84.4577 33.5599 84.4479 33.5687 84.4372L33.6223 84.374L33.6248 84.3659C33.6497 84.3355 33.6721 84.306 33.6963 84.2732L34.3037 83.4748C34.4733 83.2559 34.6423 83.0376 34.8111 82.8185C35.1499 82.3798 35.5001 81.926 35.8488 81.4867L36.3476 80.8538C38.9195 80.7782 41.4157 79.9786 43.5475 78.5459C45.6793 77.1135 47.3592 75.1077 48.3928 72.7606C49.083 71.192 49.6703 69.5802 50.1512 67.9354C51.3194 67.7555 52.4742 67.499 53.6082 67.1677C56.9611 66.1992 60.0868 64.5774 62.8048 62.3962C65.5229 60.2149 67.7792 57.5174 69.4435 54.4594L69.748 53.9033C71.4272 50.8531 72.4826 47.5002 72.8534 44.0383C73.2242 40.5763 72.9029 37.074 71.908 33.7339ZM68.8172 54.1177C67.1982 57.0938 65.0029 59.7194 62.3582 61.8425C59.7135 63.9656 56.6718 65.5442 53.409 66.4871C52.4131 66.7774 51.4007 67.0085 50.3772 67.1792C50.8995 65.448 51.3932 63.9014 52.5651 61.8085C52.6235 61.7052 52.6766 61.5994 52.7272 61.4922C55.0885 61.157 57.3888 60.204 59.5848 58.6484C61.7808 57.0928 63.4081 55.2561 64.3756 53.9959C65.2206 52.9073 65.8653 51.6778 66.2798 50.3644C67.204 47.3976 66.8321 44.4879 65.1732 41.7152C63.0231 38.1208 59.2272 35.7821 57.7057 35.482C56.5419 35.2652 55.365 35.1258 54.183 35.0649C53.0169 34.9939 51.8804 34.6676 50.8542 34.1092L49.9469 33.6149C48.922 33.0541 48.0329 32.2756 47.3426 31.3346C46.6531 30.3743 45.9001 29.461 45.0885 28.6006C44.0111 27.4843 39.9911 25.5605 35.7995 25.6955C32.5663 25.8 29.9115 27.059 27.9107 29.4382C27.0276 30.4954 26.3395 31.7006 25.8784 32.9979C25.3391 34.4912 24.67 36.8385 24.5449 39.5358C24.4174 42.2652 24.8739 44.7481 25.902 46.9368C25.8519 47.0182 25.8036 47.1008 25.7585 47.1852C24.6131 49.3256 23.5651 50.5806 22.3697 51.9743C21.9433 50.9922 21.5774 49.985 21.2743 48.9586C20.3055 45.7081 19.9925 42.2997 20.3533 38.9306C20.7141 35.5615 21.7415 32.2986 23.3761 29.3304L23.6806 28.7743C25.2994 25.7978 27.4947 23.1721 30.1394 21.0488C32.7842 18.9255 35.8261 17.3469 39.089 16.4042C41.6263 15.6616 44.2634 15.3106 46.9088 15.3633C48.8851 15.4081 50.768 16.2178 52.1588 17.621C53.5497 19.0242 54.3394 20.9108 54.3608 22.8814L54.3856 25.1748C54.3871 25.3111 54.4251 25.4446 54.4955 25.5615C54.566 25.6785 54.6664 25.7747 54.7865 25.8402C54.9065 25.9057 55.0418 25.9382 55.1785 25.9342C55.3151 25.9303 55.4482 25.8901 55.5639 25.8178L57.5093 24.5999C59.182 23.5529 61.1992 23.197 63.1336 23.6073C65.068 24.0176 66.7678 25.1622 67.8731 26.7984C70.5231 30.7207 72.0411 35.292 72.2609 40.0119C72.4806 44.7318 71.3937 49.4184 69.1189 53.5585L68.8172 54.1177ZM47.7384 72.4719C46.8008 74.6013 45.3012 76.4364 43.3992 77.7818C41.4972 79.1272 39.264 79.9324 36.9369 80.1123L38.9314 77.6118C39.0704 77.4366 39.2098 77.2615 39.3496 77.0866C39.7115 76.6334 40.085 76.1644 40.4437 75.6999L41.1908 74.7464L41.9225 73.7949C42.3885 73.1935 42.8532 72.577 43.3014 71.9851L44.788 70.0178C44.9412 69.8162 45.0918 69.6131 45.2417 69.4127C45.3238 69.3024 45.4054 69.1913 45.4882 69.0812L45.7514 68.7266C45.7554 68.7212 45.7591 68.7156 45.7625 68.7099L45.8191 68.6245C45.8214 68.6171 45.8275 68.6115 45.8312 68.6044C45.8486 68.5741 45.8649 68.5404 45.8799 68.5107L45.8849 68.4944C45.8861 68.4903 45.8871 68.4869 45.8882 68.4835C46.0408 68.1356 46.0629 67.7442 45.9504 67.3808C45.8401 67.0066 45.6198 66.6738 45.3179 66.4254L43.7346 65.1527L39.5688 61.822C38.3344 60.8341 37.0247 59.7875 35.7169 58.7541C36.9146 56.6373 38.2151 54.5819 39.6186 52.5878L43.8607 46.5802C44.0606 46.6548 44.2704 46.6997 44.4833 46.7134C47.308 46.8896 49.4426 47.8783 50.8249 49.6517C51.6876 50.7575 53.5686 53.9986 52.3951 60.2046C52.3122 60.6442 52.1581 61.0672 51.9388 61.4571C50.6626 63.7353 50.1488 65.446 49.6017 67.2633C49.1505 68.7782 48.6821 70.3422 47.7384 72.4719ZM33.0712 83.9177L33.0332 83.9618L32.9944 83.9983C32.8927 84.0803 32.764 84.1206 32.6339 84.1115C32.4718 84.0963 32.319 84.0289 32.1986 83.9193C30.8992 82.78 29.4937 81.5675 27.8997 80.2225C26.9913 79.455 26.0677 78.686 25.1749 77.9434C24.6624 77.5166 24.1514 77.091 23.6425 76.6654L23.0674 76.1824C22.5693 75.7652 22.0576 75.3343 21.5546 74.9037L20.5238 74.0262L19.1443 72.8315C18.9292 72.6463 18.7073 72.4538 18.4922 72.2611L17.99 71.8182C17.8225 71.668 17.7069 71.4688 17.6598 71.2492C17.6174 71.0512 17.6442 70.8448 17.7358 70.6644L17.7449 70.6493C17.7499 70.633 17.7624 70.6189 17.7714 70.6038L17.8174 70.5435L18.8917 69.2705L20.4623 67.4366L22.0243 65.6283L23.5695 63.8357L25.0836 62.05C26.1424 60.7789 27.0995 59.6166 28.0074 58.4906L28.7244 57.6067L29.9808 56.0227C29.9956 56.0034 30.0102 55.9848 30.0281 55.9628L30.0667 55.9195L30.1074 55.8837C30.2233 55.7971 30.3661 55.7541 30.5108 55.762C30.6885 55.7731 30.8585 55.8386 30.9975 55.9497L32.3828 57.0349C33.2522 57.7147 34.1505 58.4173 35.0354 59.1174C36.4231 60.2093 37.8174 61.3262 39.1283 62.3716L44.3457 66.5432L44.8736 66.9702C45.0651 67.1262 45.206 67.3352 45.2785 67.5708C45.3412 67.769 45.3321 67.9828 45.2526 68.1747L45.2489 68.1869C45.2401 68.2035 45.2329 68.2199 45.2236 68.2357L45.18 68.3027L44.9258 68.6474C44.8424 68.7578 44.7589 68.8686 44.6752 68.9799C44.5268 69.1807 44.3776 69.3813 44.2255 69.5817L42.738 71.5495C42.2908 72.1432 41.8272 72.7586 41.3629 73.3567L40.6325 74.3064L39.8865 75.2588C39.5281 75.7197 39.156 76.1868 38.7953 76.6359C38.6555 76.8109 38.5157 76.9861 38.3762 77.1616L36.0657 80.0602L35.2931 81.0408C34.9413 81.483 34.589 81.9413 34.2494 82.3797C34.0816 82.5976 33.9128 82.816 33.7418 83.0367L33.1288 83.8415C33.1068 83.872 33.0894 83.8949 33.0712 83.9177ZM19.376 57.0021C20.6633 55.0595 21.7266 53.8203 22.7551 52.6218C23.9901 51.1837 25.1562 49.8249 26.3875 47.5226C26.5982 47.1281 26.8718 46.7703 27.1975 46.4634C31.7955 42.1252 35.5438 41.954 36.9424 42.0821C37.4136 42.1259 37.8791 42.218 38.3315 42.3567C40.0123 42.8689 41.5256 44.0311 42.8457 45.8271C42.9579 45.978 43.089 46.1141 43.2356 46.2321L39.0352 52.1811C37.6393 54.1602 36.3438 56.2023 35.1487 58.3074C34.3667 57.6908 33.5841 57.0762 32.8168 56.4774L31.4313 55.3929C31.174 55.1884 30.859 55.0695 30.5307 55.053C30.2097 55.0366 29.8941 55.1379 29.6433 55.3378L29.6312 55.3483L29.5688 55.4036C29.5596 55.4119 29.5499 55.4216 29.5411 55.4308L29.4789 55.5003C29.4542 55.53 29.4328 55.5562 29.4117 55.5839L28.1592 57.1624L27.4476 58.0457C26.5427 59.1667 25.589 60.3278 24.5326 61.5937L23.0242 63.3752L19.9181 66.9749L18.3451 68.8118L18.1923 68.9927C17.7558 67.932 17.4639 66.818 17.3245 65.6805C16.9536 62.6346 17.6808 59.5586 19.376 57.0021ZM61.4704 46.8345C60.8131 46.6337 60.2085 46.2897 59.7006 45.8273C59.1926 45.365 58.7939 44.7961 58.5335 44.1616C58.2731 43.5272 58.1574 42.8433 58.1948 42.1593C58.2323 41.4754 58.422 40.8087 58.7501 40.2075L60.2146 37.5318C61.6682 38.5345 63.3582 40.0693 64.5609 42.0794C65.2913 43.301 65.7546 44.5473 65.9507 45.8182C65.3575 46.361 64.6324 46.7401 63.8468 46.9183C63.0613 47.0965 62.2422 47.0676 61.4704 46.8345ZM58.1242 39.8644C58.116 39.879 58.1094 39.8934 58.1019 39.9082L57.5941 40.8402C57.0019 41.9038 56.0114 42.69 54.8386 43.0273C53.6658 43.3646 52.4058 43.2256 51.3334 42.6408C50.261 42.0558 49.4633 41.0724 49.1141 39.905C48.7649 38.7374 48.8926 37.4806 49.4694 36.4086L50.4135 34.6766L50.5131 34.7315C51.6319 35.3409 52.8709 35.6974 54.1424 35.7758C55.2921 35.8355 56.4367 35.9707 57.5689 36.1807C57.9743 36.2604 58.7236 36.5853 59.6156 37.1396L58.1242 39.8644ZM48.8326 36.0621C48.5443 36.5979 48.1525 37.0713 47.6795 37.4551C47.2066 37.8389 46.662 38.1255 46.0771 38.2983C45.4922 38.471 44.8785 38.5267 44.2714 38.4619C43.6644 38.3971 43.0759 38.2134 42.54 37.921C42.004 37.6287 41.5312 37.2336 41.1487 36.7586C40.7662 36.2836 40.4816 35.738 40.3113 35.1533C40.141 34.5685 40.0883 33.9563 40.1564 33.3516C40.2245 32.747 40.4119 32.1621 40.7079 31.6305L42.732 27.9263C43.6427 28.3651 44.2908 28.802 44.569 29.0912C45.3574 29.9289 46.0898 30.8173 46.7615 31.7507C47.5134 32.7772 48.4827 33.6265 49.6004 34.2378L49.7763 34.3338L48.8326 36.0621ZM40.6112 30.3121C40.0824 31.2754 39.2257 32.0181 38.1952 32.4066C37.1648 32.7951 36.0283 32.8038 34.9904 32.4313C33.9524 32.0587 33.0813 31.3293 32.5336 30.3743C31.986 29.4193 31.7978 28.3015 32.0031 27.2221C33.1577 26.7221 34.4314 26.4499 35.8242 26.4055C38.2037 26.3286 40.4418 26.9385 42.079 27.6307L40.6112 30.3121Z" fill="#231F20"/>
<path d="M18.3473 68.8095L19.9203 66.9726L23.0264 63.3729L24.5348 61.5913C25.5919 60.3257 26.5429 59.1638 27.4498 58.0434L28.1614 57.1601L29.4139 55.5816C29.435 55.5539 29.4564 55.5277 29.4811 55.498L29.5433 55.4285C29.5521 55.4193 29.5618 55.4096 29.571 55.4013L29.6334 55.346L29.6455 55.3355C29.8963 55.1356 30.2119 55.0343 30.5329 55.0507C30.8612 55.0672 31.1762 55.1861 31.4335 55.3906L32.819 56.4751C33.5836 57.073 34.3697 57.6909 35.1509 58.3051C36.3441 56.2029 37.6397 54.1607 39.0375 52.1788L43.2378 46.2298C43.0912 46.1118 42.9601 45.9757 42.8479 45.8248C41.5298 44.0294 40.0145 42.8666 38.3337 42.3544C37.8813 42.2157 37.4158 42.1236 36.9446 42.0798C35.5462 41.951 31.7977 42.1229 27.1997 46.4611C26.8737 46.7689 26.6001 47.1276 26.3896 47.5232C25.1587 49.8241 23.9922 51.1843 22.7571 52.6224C21.7286 53.8209 20.6653 55.0602 19.378 57.0027C17.685 59.5592 16.9594 62.6341 17.331 65.6788C17.4704 66.8163 17.7623 67.9302 18.1988 68.9909L18.3473 68.8095Z" fill="#F38BA3"/>
<path d="M49.605 67.2672C50.1512 65.4527 50.6659 63.7393 51.9421 61.4611C52.1613 61.0711 52.3154 60.6481 52.3984 60.2086C53.5719 54.0025 51.6908 50.7615 50.8281 49.6556C49.4432 47.8814 47.3085 46.8927 44.4866 46.7174C44.2736 46.7037 44.0639 46.6588 43.8639 46.5841L39.6186 52.5878C38.2162 54.5783 36.9158 56.633 35.7175 58.7521C37.0253 59.7854 38.3351 60.832 39.5694 61.82L43.7352 65.1507L45.3179 66.4254C45.6218 66.6722 45.8445 67.0042 45.9571 67.3784C46.0682 67.7412 46.0454 68.1313 45.8928 68.4782C45.8928 68.4782 45.8907 68.485 45.8894 68.4891L45.8845 68.5055C45.8688 68.5371 45.8528 68.5701 45.8358 68.5991C45.8335 68.6066 45.828 68.6124 45.8237 68.6192L45.7671 68.7046C45.7637 68.7103 45.76 68.7159 45.756 68.7213L45.4928 69.0759C45.41 69.186 45.3284 69.2971 45.2463 69.4074C45.0956 69.6105 44.9449 69.8136 44.7925 70.0125L43.304 71.9814C42.8549 72.576 42.3911 73.1899 41.9251 73.7912L41.1934 74.7427L40.4463 75.6962C40.0855 76.1601 39.7141 76.6297 39.3522 77.0829C39.2125 77.2574 39.0731 77.4325 38.934 77.6081L36.9402 80.1089C39.2663 79.9287 41.4985 79.1237 43.4 77.779C45.3013 76.4342 46.8006 74.6002 47.7384 72.4719C48.6821 70.3422 49.1505 68.7782 49.605 67.2672Z" fill="#F38BA3"/>
<g clip-path="url(#clip1_8_314)">
<path d="M31 71.4815C31.8416 71.4815 32.5238 70.8182 32.5238 70C32.5238 69.1818 31.8416 68.5185 31 68.5185C30.1584 68.5185 29.4762 69.1818 29.4762 70C29.4762 70.8182 30.1584 71.4815 31 71.4815Z" fill="#149ECA"/>
<path d="M31 73.3333C35.2079 73.3333 38.6191 71.841 38.6191 70C38.6191 68.1591 35.2079 66.6667 31 66.6667C26.7921 66.6667 23.381 68.1591 23.381 70C23.381 71.841 26.7921 73.3333 31 73.3333Z" stroke="#149ECA"/>
<path d="M28.0308 71.6667C30.1347 75.2096 33.1697 77.3355 34.8095 76.415C36.4494 75.4945 36.0732 71.8762 33.9693 68.3333C31.8653 64.7904 28.8304 62.6645 27.1905 63.585C25.5506 64.5055 25.9269 68.1238 28.0308 71.6667Z" stroke="#149ECA"/>
<path d="M28.0308 68.3333C25.9269 71.8762 25.5507 75.4945 27.1905 76.415C28.8304 77.3355 31.8653 75.2096 33.9693 71.6667C36.0732 68.1238 36.4494 64.5055 34.8096 63.585C33.1697 62.6645 30.1348 64.7904 28.0308 68.3333Z" stroke="#149ECA"/>
</g>
</g>
<defs>
<clipPath id="clip0_8_314">
<rect width="67.2997" height="81.3448" fill="white" transform="translate(23.7121) rotate(16.9478)"/>
</clipPath>
<clipPath id="clip1_8_314">
<rect width="16" height="14" fill="white" transform="translate(23 63)"/>
</clipPath>
</defs>
</svg>
